<svg width="20" height="24" viewBox="0 0 20 24" fill="none" xmlns="http://www.w3.org/2000/svg">
<path d="M17.1429 15.225H8.57143C8.17857 15.225 7.85714 14.8988 7.85714 14.5V2.9C7.85714 2.50125 8.17857 2.175 8.57143 2.175H14.8259L17.8571 5.25172V14.5C17.8571 14.8988 17.5357 15.225 17.1429 15.225ZM8.57143 17.4H17.1429C18.7188 17.4 20 16.0995 20 14.5V5.25172C20 4.67625 19.7723 4.12344 19.3705 3.71563L16.3438 0.638906C15.942 0.231094 15.3973 0 14.8304 0H8.57143C6.99554 0 5.71429 1.30047 5.71429 2.9V14.5C5.71429 16.0995 6.99554 17.4 8.57143 17.4ZM2.85714 5.8C1.28125 5.8 0 7.10047 0 8.7V20.3C0 21.8995 1.28125 23.2 2.85714 23.2H11.4286C13.0045 23.2 14.2857 21.8995 14.2857 20.3V18.85H12.1429V20.3C12.1429 20.6988 11.8214 21.025 11.4286 21.025H2.85714C2.46429 21.025 2.14286 20.6988 2.14286 20.3V8.7C2.14286 8.30125 2.46429 7.975 2.85714 7.975H4.28571V5.8H2.85714Z" fill="#55F991"/>
</svg>
